<?xml version="1.0" encoding="UTF-8" standalone="no"?>
<!-- Created with Inkscape (http://www.inkscape.org/) -->
<svg xmlns:dc="http://purl.org/dc/elements/1.1/" xmlns:cc="http://creativecommons.org/ns#" xmlns:rdf="http://www.w3.org/1999/02/22-rdf-syntax-ns#" xmlns:svg="http://www.w3.org/2000/svg" xmlns="http://www.w3.org/2000/svg" xmlns:xlink="http://www.w3.org/1999/xlink" xmlns:sodipodi="http://sodipodi.sourceforge.net/DTD/sodipodi-0.dtd" xmlns:inkscape="http://www.inkscape.org/namespaces/inkscape" width="900" height="600" id="svg2715" sodipodi:version="0.32" inkscape:version="0.47 r22583" sodipodi:docname="SVlogo.svg" inkscape:output_extension="org.inkscape.output.svg.inkscape" version="1.1">
  <defs id="defs3">
    <inkscape:perspective sodipodi:type="inkscape:persp3d" inkscape:vp_x="0 : 526.18109 : 1" inkscape:vp_y="0 : 1000 : 0" inkscape:vp_z="744.09448 : 526.18109 : 1" inkscape:persp3d-origin="372.04724 : 350.78739 : 1" id="perspective2842"/>
    <inkscape:perspective id="perspective2899" inkscape:persp3d-origin="0.5 : 0.33333333 : 1" inkscape:vp_z="1 : 0.5 : 1" inkscape:vp_y="0 : 1000 : 0" inkscape:vp_x="0 : 0.5 : 1" sodipodi:type="inkscape:persp3d"/>
    <inkscape:perspective id="perspective3131" inkscape:persp3d-origin="0.5 : 0.33333333 : 1" inkscape:vp_z="1 : 0.5 : 1" inkscape:vp_y="0 : 1000 : 0" inkscape:vp_x="0 : 0.5 : 1" sodipodi:type="inkscape:persp3d"/>
    <linearGradient inkscape:collect="always" xlink:href="#linearGradient4318" id="linearGradient2355" gradientUnits="userSpaceOnUse" gradientTransform="translate(-169.70026,252.77728)" x1="408.55124" y1="132.56934" x2="410.23792" y2="218.98895"/>
    <linearGradient id="linearGradient4318">
      <stop style="stop-color:#8c1619;stop-opacity:1;" offset="0" id="stop4320"/>
      <stop style="stop-color:#d01f2e;stop-opacity:1;" offset="1" id="stop4322"/>
    </linearGradient>
    <clipPath id="clp1" fill="none">
      <path shape-rendering="crispEdges" d="m 0,0 595.276,0 0,841.89 L 0,841.89 0,0 z" id="path5051" style="stroke:#000000"/>
    </clipPath>
  </defs>
  <sodipodi:namedview inkscape:document-units="mm" id="base" pagecolor="#ffffff" bordercolor="#666666" borderopacity="1.0" inkscape:pageopacity="0.0" inkscape:pageshadow="2" inkscape:zoom="0.5" inkscape:cx="151.31903" inkscape:cy="321.87026" inkscape:current-layer="layer1" inkscape:window-width="1680" inkscape:window-height="988" inkscape:window-x="-8" inkscape:window-y="-8" showgrid="false" inkscape:window-maximized="1"/>
  <metadata id="metadata4">
    <rdf:RDF>
      <cc:Work rdf:about="">
        <dc:format>image/svg+xml</dc:format>
        <dc:type rdf:resource="http://purl.org/dc/dcmitype/StillImage"/>
        <dc:title/>
      </cc:Work>
    </rdf:RDF>
  </metadata>
  <g inkscape:label="Layer 1" inkscape:groupmode="layer" id="layer1" transform="translate(-175.35295,-270.90574)">
    <g transform="matrix(5.6120565,0,0,5.6120565,-871.0366,-472.99056)" id="g2393">
      <path transform="matrix(1.071407,0,0,1.0626964,6.43002,-269.36821)" d="m 283.44056,428.51166 c 0,23.88884 -19.20829,43.25457 -42.90292,43.25457 -23.69462,0 -42.90291,-19.36573 -42.90291,-43.25457 0,-23.88884 19.20829,-43.25458 42.90291,-43.25458 23.69463,0 42.90292,19.36574 42.90292,43.25458 z" sodipodi:ry="43.254574" sodipodi:rx="42.902912" sodipodi:cy="428.51166" sodipodi:cx="240.53764" id="path6068" style="fill:url(#linearGradient2355);fill-opacity:1;stroke:none" sodipodi:type="arc"/>
      <g id="g2281">
        <g transform="translate(181.89663,-276.18962)" id="g6342">
          <g style="fill:#ffffff;fill-opacity:1" id="g6344" transform="translate(89.96935,448.52647)">
            <path style="fill:#ffffff;fill-opacity:1" id="path6346" d="m -10.128,8.356 c -0.556,-1.54 -1.329,-2.813 -2.321,-3.819 -0.992,-1.006 -2.195,-1.861 -3.609,-2.566 -1.414,-0.705 -2.993,-1.349 -4.738,-1.933 -1.393,-0.503 -2.391,-0.885 -2.996,-1.147 -0.605,-0.262 -1.203,-0.624 -1.794,-1.087 -0.591,-0.463 -1.055,-1.016 -1.393,-1.66 -0.337,-0.644 -0.506,-1.409 -0.506,-2.295 0,-1.429 0.496,-2.651 1.487,-3.668 0.991,-1.016 2.296,-1.525 3.914,-1.525 1.744,0 3.01,0.468 3.798,1.404 0.788,0.936 1.463,2.24 2.026,3.911 0.436,1.167 0.841,2.007 1.214,2.52 0.373,0.513 0.918,0.77 1.636,0.77 0.788,0 1.446,-0.427 1.974,-1.282 0.528,-0.855 0.792,-1.816 0.792,-2.882 0,-1.167 -0.211,-2.364 -0.633,-3.591 -0.422,-1.227 -1.09,-2.399 -2.004,-3.516 -0.914,-1.116 -2.063,-2.012 -3.448,-2.685 -1.385,-0.673 -3.027,-1.011 -4.924,-1.011 -2.376,0 -4.443,0.508 -6.201,1.525 -1.758,1.017 -3.1,2.47 -4.028,4.361 -0.928,1.891 -1.392,4.055 -1.392,6.49 0,2.556 0.439,4.694 1.317,6.414 0.878,1.72 2.065,3.079 3.562,4.075 1.496,0.996 3.355,1.866 5.575,2.611 1.66,0.544 2.985,1.057 3.977,1.54 0.991,0.483 1.8,1.182 2.426,2.098 0.626,0.916 0.939,2.108 0.939,3.578 0,1.852 -0.58,3.397 -1.74,4.635 -1.161,1.238 -2.669,1.857 -4.525,1.857 -1.35,0 -2.44,-0.306 -3.27,-0.921 -0.83,-0.614 -1.473,-1.394 -1.93,-2.34 -0.457,-0.946 -0.883,-2.124 -1.276,-3.533 -0.323,-1.187 -0.713,-2.083 -1.169,-2.687 -0.456,-0.604 -1.015,-0.906 -1.675,-0.906 -0.814,0 -1.485,0.388 -2.011,1.163 -0.527,0.776 -0.79,1.708 -0.79,2.796 0,1.874 0.439,3.803 1.317,5.787 0.878,1.985 2.018,3.571 3.423,4.76 1.983,1.656 4.501,2.484 7.553,2.484 2.546,0 4.747,-0.605 6.604,-1.814 1.856,-1.209 3.266,-2.883 4.23,-5.02 0.963,-2.137 1.445,-4.546 1.445,-7.228 -0.003,-2.235 -0.281,-4.122 -0.836,-5.663 z"/>
          </g>
          <g style="fill:#ffffff;fill-opacity:1" id="g6348" transform="matrix(1,0,0,0.9791497,114.89785,471.92126)">
            <path style="fill:#ffffff;fill-opacity:1" id="path6350" d="m -7.34,-13.087 c -0.554,-0.762 -1.217,-1.144 -1.99,-1.144 -0.904,0 -1.56,0.377 -1.968,1.129 -0.408,0.753 -0.751,1.727 -1.028,2.923 -0.656,2.536 -1.629,4.459 -2.92,5.768 -1.29,1.31 -2.869,1.964 -4.735,1.964 -1.72,0 -3.222,-0.577 -4.505,-1.732 -1.283,-1.155 -2.274,-2.902 -2.974,-5.242 -0.7,-2.34 -1.05,-5.273 -1.05,-8.8 0,-5.278 0.791,-9.351 2.373,-12.217 1.582,-2.866 3.707,-4.299 6.375,-4.299 1.677,0 3.087,0.557 4.232,1.67 1.145,1.114 2.14,2.794 2.985,5.041 0.51,1.361 0.973,2.32 1.389,2.876 0.416,0.557 1.039,0.835 1.87,0.835 0.744,0 1.378,-0.4 1.903,-1.202 0.525,-0.801 0.787,-1.725 0.787,-2.774 0,-1.91 -0.539,-3.939 -1.618,-6.087 -1.079,-2.147 -2.632,-3.95 -4.658,-5.409 -2.026,-1.459 -4.337,-2.189 -6.933,-2.189 -2.129,0 -4.133,0.535 -6.014,1.606 -1.881,1.071 -3.52,2.63 -4.917,4.678 -1.397,2.048 -2.47,4.513 -3.22,7.394 -0.75,2.881 -1.124,6.144 -1.124,9.787 0,2.244 0.149,4.364 0.447,6.361 0.298,1.997 0.746,3.875 1.343,5.635 0.597,1.76 1.317,3.35 2.161,4.77 0.946,1.554 1.983,2.806 3.113,3.757 1.129,0.951 2.386,1.651 3.771,2.1 1.385,0.449 2.923,0.674 4.614,0.674 2.231,0 4.184,-0.504 5.861,-1.509 1.677,-1.005 3.054,-2.315 4.133,-3.927 1.079,-1.612 1.87,-3.254 2.373,-4.928 0.503,-1.674 0.755,-3.229 0.755,-4.667 0,-1.131 -0.277,-2.079 -0.831,-2.842 z"/>
          </g>
        </g>
        <g clip-path="url(#clp1)" id="g6250" transform="translate(-33.77062,-208.08238)" style="fill:none">
          <g transform="translate(251.8366,347.1147)" id="g6252">
            <path d="m 24.422,71.844 c 0,0.477 -0.088,0.906 -0.264,1.286 -0.176,0.38 -0.433,0.678 -0.772,0.894 -0.339,0.215 -0.741,0.323 -1.206,0.323 -0.557,0 -1.017,-0.147 -1.379,-0.44 -0.256,-0.212 -0.465,-0.495 -0.625,-0.848 -0.16,-0.354 -0.24,-0.698 -0.24,-1.032 0,-0.194 0.048,-0.36 0.144,-0.498 0.096,-0.138 0.219,-0.207 0.367,-0.207 0.12,0 0.222,0.054 0.306,0.162 0.083,0.108 0.155,0.268 0.213,0.48 0.072,0.252 0.15,0.462 0.233,0.631 0.083,0.169 0.201,0.308 0.353,0.418 0.151,0.11 0.351,0.164 0.597,0.164 0.339,0 0.615,-0.111 0.826,-0.332 0.212,-0.221 0.318,-0.497 0.318,-0.828 0,-0.262 -0.057,-0.475 -0.172,-0.639 -0.115,-0.164 -0.262,-0.289 -0.443,-0.375 -0.181,-0.086 -0.423,-0.178 -0.726,-0.275 -0.405,-0.133 -0.745,-0.288 -1.018,-0.466 -0.273,-0.178 -0.49,-0.421 -0.65,-0.728 -0.16,-0.307 -0.24,-0.689 -0.24,-1.146 0,-0.435 0.085,-0.822 0.254,-1.16 0.169,-0.338 0.415,-0.598 0.735,-0.779 0.321,-0.181 0.698,-0.272 1.132,-0.272 0.347,0 0.646,0.06 0.899,0.181 0.253,0.12 0.463,0.28 0.63,0.48 0.167,0.199 0.289,0.409 0.366,0.628 0.077,0.219 0.115,0.433 0.115,0.642 0,0.19 -0.048,0.362 -0.144,0.515 -0.096,0.153 -0.216,0.229 -0.36,0.229 -0.131,0 -0.23,-0.046 -0.298,-0.137 -0.068,-0.092 -0.142,-0.242 -0.221,-0.45 -0.103,-0.299 -0.226,-0.531 -0.37,-0.699 -0.144,-0.167 -0.375,-0.251 -0.693,-0.251 -0.296,0 -0.534,0.091 -0.715,0.273 -0.181,0.182 -0.272,0.4 -0.272,0.655 0,0.158 0.031,0.295 0.093,0.41 0.062,0.115 0.146,0.214 0.254,0.297 0.108,0.083 0.217,0.148 0.328,0.194 0.11,0.047 0.293,0.115 0.547,0.205 0.318,0.104 0.607,0.219 0.865,0.345 0.258,0.126 0.478,0.279 0.659,0.458 0.181,0.18 0.322,0.407 0.424,0.682 0.099,0.274 0.15,0.611 0.15,1.01 z" id="path6254" style="fill:#ffffff"/>
          </g>
          <g transform="translate(251.8366,347.1147)" id="g6256">
            <path d="m 27.881,66.176 c 0.585,0 1.088,0.166 1.507,0.498 0.42,0.332 0.737,0.805 0.953,1.418 0.216,0.613 0.323,1.332 0.323,2.159 0,0.611 -0.059,1.166 -0.177,1.665 -0.118,0.5 -0.295,0.932 -0.531,1.299 -0.236,0.366 -0.526,0.647 -0.87,0.841 -0.344,0.194 -0.738,0.291 -1.182,0.291 -0.442,0 -0.837,-0.1 -1.186,-0.299 -0.349,-0.199 -0.641,-0.481 -0.874,-0.844 -0.234,-0.363 -0.41,-0.799 -0.529,-1.31 -0.12,-0.51 -0.179,-1.062 -0.179,-1.655 0,-0.607 0.062,-1.164 0.187,-1.671 0.125,-0.507 0.305,-0.938 0.541,-1.294 0.236,-0.356 0.524,-0.628 0.862,-0.817 0.338,-0.187 0.723,-0.281 1.155,-0.281 z m 1.624,4.064 c 0,-0.579 -0.067,-1.081 -0.2,-1.505 -0.133,-0.424 -0.324,-0.745 -0.572,-0.963 -0.248,-0.218 -0.532,-0.326 -0.853,-0.326 -0.228,0 -0.439,0.06 -0.633,0.181 -0.194,0.121 -0.361,0.296 -0.5,0.526 -0.14,0.23 -0.25,0.524 -0.331,0.882 -0.081,0.358 -0.121,0.76 -0.121,1.206 0,0.449 0.04,0.856 0.121,1.219 0.081,0.363 0.195,0.664 0.343,0.904 0.148,0.239 0.317,0.418 0.508,0.537 0.191,0.119 0.401,0.178 0.629,0.178 0.292,0 0.561,-0.103 0.806,-0.307 0.245,-0.205 0.44,-0.521 0.585,-0.949 0.145,-0.431 0.218,-0.958 0.218,-1.583 z" id="path6258" style="fill:#ffffff"/>
          </g>
          <g transform="translate(251.8366,347.1147)" id="g6260">
            <path d="m 35.014,67.545 c 0,0 -2.253,0 -2.253,0 l 0,2.021 c 0,0 1.883,0 1.883,0 0.175,0 0.305,0.055 0.391,0.165 0.086,0.11 0.129,0.256 0.129,0.44 0,0.183 -0.044,0.329 -0.131,0.437 -0.087,0.108 -0.217,0.162 -0.389,0.162 0,0 -1.883,0 -1.883,0 0,0 0,2.602 0,2.602 0,0.33 -0.053,0.576 -0.16,0.735 -0.107,0.16 -0.243,0.24 -0.41,0.24 -0.169,0 -0.308,-0.081 -0.414,-0.242 -0.106,-0.162 -0.16,-0.406 -0.16,-0.733 0,0 0,-6.082 0,-6.082 0,-0.23 0.024,-0.418 0.073,-0.563 0.049,-0.146 0.125,-0.252 0.229,-0.318 0.104,-0.067 0.237,-0.1 0.398,-0.1 0,0 2.696,0 2.696,0 0.182,0 0.318,0.057 0.406,0.17 0.088,0.113 0.133,0.262 0.133,0.445 0,0.187 -0.044,0.338 -0.133,0.451 -0.089,0.113 -0.222,0.17 -0.405,0.17 z" id="path6262" style="fill:#ffffff"/>
          </g>
          <g transform="translate(251.8366,347.1147)" id="g6264">
            <path d="m 40.075,67.633 c 0,0 -1.248,0 -1.248,0 0,0 0,5.738 0,5.738 0,0.331 -0.053,0.576 -0.158,0.736 -0.105,0.16 -0.242,0.24 -0.41,0.24 -0.17,0 -0.308,-0.081 -0.415,-0.242 -0.107,-0.161 -0.16,-0.406 -0.16,-0.733 0,0 0,-5.738 0,-5.738 0,0 -1.248,0 -1.248,0 -0.195,0 -0.34,-0.06 -0.435,-0.181 -0.095,-0.121 -0.143,-0.28 -0.143,-0.479 0,-0.206 0.05,-0.368 0.148,-0.487 0.099,-0.119 0.242,-0.178 0.429,-0.178 0,0 3.639,0 3.639,0 0.198,0 0.344,0.061 0.441,0.184 0.096,0.123 0.145,0.283 0.145,0.481 0,0.198 -0.049,0.358 -0.146,0.479 -0.097,0.121 -0.244,0.18 -0.439,0.18 z" id="path6266" style="fill:#ffffff"/>
          </g>
          <g transform="translate(251.8366,347.1147)" id="g6268">
            <path d="m 45.996,71.717 c 0,0.251 -0.044,0.524 -0.133,0.816 -0.089,0.292 -0.228,0.58 -0.418,0.862 -0.19,0.282 -0.433,0.511 -0.728,0.687 -0.295,0.176 -0.639,0.264 -1.032,0.264 -0.298,0 -0.569,-0.039 -0.813,-0.118 -0.244,-0.079 -0.465,-0.202 -0.664,-0.369 -0.199,-0.167 -0.382,-0.387 -0.549,-0.659 -0.149,-0.248 -0.276,-0.526 -0.381,-0.833 -0.105,-0.307 -0.184,-0.635 -0.237,-0.984 -0.053,-0.349 -0.079,-0.719 -0.079,-1.111 0,-0.636 0.066,-1.206 0.198,-1.709 0.132,-0.503 0.322,-0.934 0.568,-1.291 0.247,-0.358 0.535,-0.63 0.867,-0.817 0.332,-0.187 0.684,-0.28 1.059,-0.28 0.457,0 0.864,0.127 1.221,0.383 0.357,0.255 0.63,0.57 0.82,0.946 0.19,0.375 0.285,0.73 0.285,1.064 0,0.183 -0.046,0.345 -0.139,0.485 -0.093,0.14 -0.204,0.21 -0.335,0.21 -0.146,0 -0.256,-0.048 -0.329,-0.146 -0.073,-0.097 -0.155,-0.264 -0.245,-0.502 -0.149,-0.392 -0.324,-0.685 -0.526,-0.879 -0.201,-0.194 -0.45,-0.291 -0.745,-0.291 -0.47,0 -0.844,0.25 -1.123,0.75 -0.278,0.5 -0.418,1.21 -0.418,2.131 0,0.615 0.062,1.126 0.185,1.535 0.123,0.409 0.298,0.713 0.524,0.914 0.226,0.201 0.49,0.302 0.793,0.302 0.329,0 0.606,-0.114 0.834,-0.343 0.228,-0.229 0.399,-0.564 0.514,-1.006 0.049,-0.209 0.109,-0.378 0.181,-0.51 0.072,-0.131 0.187,-0.197 0.346,-0.197 0.136,0 0.253,0.067 0.351,0.2 0.099,0.133 0.148,0.299 0.148,0.496 z" id="path6270" style="fill:#ffffff"/>
          </g>
          <g transform="translate(251.8366,347.1147)" id="g6272">
            <path d="m 50.65,73.318 c 0,0 -0.27,-0.992 -0.27,-0.992 l -2.295,0 c 0,0 -0.27,1.013 -0.27,1.013 -0.105,0.395 -0.195,0.662 -0.27,0.8 -0.075,0.138 -0.196,0.207 -0.366,0.207 -0.144,0 -0.271,-0.074 -0.381,-0.221 -0.11,-0.147 -0.166,-0.314 -0.166,-0.501 0,-0.108 0.013,-0.219 0.039,-0.334 0.026,-0.115 0.068,-0.275 0.127,-0.48 0,0 1.444,-5.131 1.444,-5.131 0.041,-0.147 0.091,-0.324 0.148,-0.531 0.058,-0.207 0.119,-0.378 0.185,-0.515 0.066,-0.137 0.152,-0.247 0.258,-0.332 0.106,-0.085 0.238,-0.127 0.395,-0.127 0.159,0 0.292,0.042 0.398,0.127 0.107,0.084 0.193,0.193 0.258,0.326 0.066,0.133 0.121,0.276 0.166,0.428 0.045,0.153 0.102,0.357 0.171,0.612 0,0 1.475,5.099 1.475,5.099 0.116,0.388 0.173,0.67 0.173,0.846 0,0.183 -0.054,0.351 -0.164,0.504 -0.11,0.153 -0.241,0.229 -0.395,0.229 -0.09,0 -0.167,-0.022 -0.231,-0.067 -0.064,-0.045 -0.118,-0.106 -0.162,-0.183 -0.044,-0.077 -0.091,-0.196 -0.141,-0.356 -0.047,-0.158 -0.09,-0.299 -0.126,-0.421 z m -2.264,-2.196 1.687,0 -0.851,-3.257 -0.836,3.257 z" id="path6274" style="fill:#ffffff"/>
          </g>
          <g transform="translate(251.8366,347.1147)" id="g6276">
            <path d="m 55.781,67.633 c 0,0 -1.248,0 -1.248,0 0,0 0,5.738 0,5.738 0,0.331 -0.053,0.576 -0.158,0.736 -0.106,0.16 -0.242,0.24 -0.41,0.24 -0.17,0 -0.308,-0.081 -0.415,-0.242 -0.107,-0.161 -0.16,-0.406 -0.16,-0.733 0,0 0,-5.738 0,-5.738 0,0 -1.248,0 -1.248,0 -0.195,0 -0.34,-0.06 -0.435,-0.181 -0.095,-0.121 -0.143,-0.28 -0.143,-0.479 0,-0.206 0.049,-0.368 0.148,-0.487 0.099,-0.119 0.242,-0.178 0.429,-0.178 0,0 3.639,0 3.639,0 0.198,0 0.344,0.061 0.441,0.184 0.096,0.123 0.145,0.283 0.145,0.481 0,0.198 -0.049,0.358 -0.146,0.479 -0.098,0.12 -0.244,0.18 -0.439,0.18 z" id="path6278" style="fill:#ffffff"/>
          </g>
          <g transform="translate(251.8366,347.1147)" id="g6280">
            <path d="m 60.235,73.318 c 0,0 -0.27,-0.992 -0.27,-0.992 l -2.295,0 c 0,0 -0.27,1.013 -0.27,1.013 -0.105,0.395 -0.195,0.662 -0.27,0.8 -0.074,0.138 -0.197,0.207 -0.366,0.207 -0.144,0 -0.271,-0.074 -0.381,-0.221 -0.111,-0.147 -0.166,-0.314 -0.166,-0.501 0,-0.108 0.013,-0.219 0.039,-0.334 0.026,-0.115 0.068,-0.275 0.127,-0.48 0,0 1.444,-5.131 1.444,-5.131 0.041,-0.147 0.09,-0.324 0.148,-0.531 0.058,-0.207 0.119,-0.378 0.185,-0.515 0.065,-0.137 0.151,-0.247 0.258,-0.332 0.106,-0.084 0.238,-0.127 0.395,-0.127 0.159,0 0.292,0.042 0.398,0.127 0.106,0.085 0.193,0.193 0.258,0.326 0.065,0.133 0.121,0.276 0.166,0.428 0.045,0.153 0.102,0.357 0.171,0.612 0,0 1.475,5.099 1.475,5.099 0.115,0.388 0.173,0.67 0.173,0.846 0,0.183 -0.055,0.351 -0.164,0.504 -0.109,0.153 -0.241,0.229 -0.395,0.229 -0.09,0 -0.167,-0.022 -0.231,-0.067 -0.064,-0.045 -0.118,-0.106 -0.162,-0.183 -0.044,-0.077 -0.09,-0.196 -0.141,-0.356 -0.048,-0.158 -0.09,-0.299 -0.126,-0.421 z m -2.265,-2.196 1.687,0 -0.851,-3.257 -0.836,3.257 z" id="path6282" style="fill:#ffffff"/>
          </g>
          <g transform="translate(251.8366,347.1147)" id="g6284">
            <path d="m 63.415,67.146 c 0,0 0,5.754 0,5.754 0,0 2.319,0 2.319,0 0.185,0 0.327,0.063 0.426,0.188 0.099,0.126 0.148,0.284 0.148,0.474 0,0.194 -0.049,0.351 -0.146,0.471 -0.098,0.12 -0.24,0.18 -0.427,0.18 0,0 -2.761,0 -2.761,0 -0.249,0 -0.428,-0.077 -0.537,-0.232 -0.109,-0.155 -0.164,-0.404 -0.164,-0.749 0,0 0,-6.087 0,-6.087 0,-0.324 0.052,-0.566 0.156,-0.728 0.104,-0.162 0.241,-0.243 0.41,-0.243 0.172,0 0.311,0.08 0.418,0.24 0.105,0.161 0.158,0.405 0.158,0.732 z" id="path6286" style="fill:#ffffff"/>
          </g>
          <g transform="translate(251.8366,347.1147)" id="g6288">
            <path d="m 70.674,73.318 c 0,0 -0.27,-0.992 -0.27,-0.992 l -2.295,0 c 0,0 -0.27,1.013 -0.27,1.013 -0.105,0.395 -0.195,0.662 -0.27,0.8 -0.074,0.138 -0.196,0.207 -0.366,0.207 -0.144,0 -0.271,-0.074 -0.381,-0.221 -0.11,-0.147 -0.166,-0.314 -0.166,-0.501 0,-0.108 0.013,-0.219 0.039,-0.334 0.026,-0.115 0.068,-0.275 0.127,-0.48 0,0 1.444,-5.131 1.444,-5.131 0.041,-0.147 0.091,-0.324 0.148,-0.531 0.058,-0.207 0.119,-0.378 0.185,-0.515 0.065,-0.137 0.151,-0.247 0.258,-0.332 0.106,-0.084 0.238,-0.127 0.395,-0.127 0.159,0 0.292,0.042 0.398,0.127 0.107,0.084 0.192,0.193 0.258,0.326 0.065,0.133 0.121,0.276 0.166,0.428 0.045,0.153 0.102,0.357 0.171,0.612 0,0 1.475,5.099 1.475,5.099 0.115,0.388 0.173,0.67 0.173,0.846 0,0.183 -0.055,0.351 -0.164,0.504 -0.109,0.153 -0.241,0.229 -0.395,0.229 -0.09,0 -0.167,-0.022 -0.231,-0.067 C 71.039,74.233 70.985,74.172 70.941,74.095 70.897,74.018 70.85,73.899 70.8,73.739 70.752,73.581 70.709,73.44 70.674,73.318 z m -2.265,-2.196 1.687,0 -0.851,-3.257 -0.836,3.257 z m 0.985,-6.259 c 0,0 0.173,0.452 0.173,0.452 0.07,0.154 0.104,0.26 0.104,0.318 0,0.09 -0.055,0.134 -0.166,0.134 -0.169,0 -0.327,-0.052 -0.474,-0.156 -0.072,-0.05 -0.249,-0.264 -0.531,-0.641 -0.282,-0.377 -0.424,-0.589 -0.424,-0.635 0,-0.054 0.065,-0.081 0.196,-0.081 0,0 0.52,0 0.52,0 0.151,0 0.266,0.038 0.343,0.113 0.077,0.075 0.164,0.241 0.259,0.496 z" id="path6290" style="fill:#ffffff"/>
          </g>
          <g transform="translate(251.8366,347.1147)" id="g6292">
            <path d="m 40.046,79.95 2.929,-2.929 1.503,0 -3.68,3.68 -0.752,-0.751 z" id="path6294" style="fill:#ffffff"/>
          </g>
          <g transform="translate(251.8366,347.1147)" id="g6296">
            <path d="m 43.7,83.604 6.582,-6.582 1.503,0 -7.334,7.334 -0.751,-0.752 z" id="path6298" style="fill:#ffffff"/>
          </g>
          <g transform="translate(251.8366,347.1147)" id="g6300">
            <path d="m 42.482,82.386 5.364,-5.365 1.503,0 -6.116,6.116 -0.751,-0.751 z" id="path6302" style="fill:#ffffff"/>
          </g>
          <g transform="translate(251.8366,347.1147)" id="g6304">
            <path d="m 41.264,81.168 4.146,-4.147 1.503,0 -4.898,4.898 -0.751,-0.751 z" id="path6306" style="fill:#ffffff"/>
          </g>
        </g>
      </g>
    </g>
  </g>
</svg>